<?xml version="1.0" encoding="UTF-8" standalone="no"?>
<!DOCTYPE svg PUBLIC "-//W3C//DTD SVG 1.1//EN" "http://www.w3.org/Graphics/SVG/1.1/DTD/svg11.dtd">
<svg width="28px" height="18px" viewBox="0 0 25 18" version="1.1" xmlns="http://www.w3.org/2000/svg" xmlns:xlink="http://www.w3.org/1999/xlink" xml:space="preserve" xmlns:serif="http://www.serif.com/" style="fill-rule:evenodd;clip-rule:evenodd;stroke-linejoin:round;stroke-miterlimit:1.41421;">
    <g transform="matrix(1.78571,0,0,1.78571,0,0)">
        <path d="M12.993,10L1.007,10C0.739,10 0.496,9.896 0.316,9.729L5.268,5.484L7,7L8.732,5.484L13.681,9.729C13.502,9.896 13.26,10 12.993,10ZM0,0.878L0,9.186L4.833,5.079L0,0.878ZM9.167,5.079L14,9.186L14,0.875L9.167,5.079ZM12.993,0C13.262,0 13.504,0.103 13.684,0.271L7,6L0.318,0.273C0.498,0.104 0.74,0 1.007,0L12.993,0Z" style="fill:#fff;fill-rule:nonzero;"/>
    </g>
</svg>
