<svg xmlns="http://www.w3.org/2000/svg" viewBox="0 0 463.62 550.96"><defs><style>.cls-1{fill:#231f20;}</style></defs><g id="Layer_2" data-name="Layer 2"><g id="Layer_1-2" data-name="Layer 1"><path class="cls-1" d="M438.62,149.6H25L0,551H463.62Zm-314,127.3a49,49,0,1,1,49-49A49,49,0,0,1,124.57,276.9Zm210.39,0a49,49,0,1,1,49-49A49,49,0,0,1,335,276.9Z"/><path class="cls-1" d="M335,245.38a17.49,17.49,0,0,1-17.5-17.5V122.69a87.7,87.7,0,0,0-175.39,0V227.88a17.5,17.5,0,0,1-35,0V122.69a122.7,122.7,0,0,1,245.39,0V227.88A17.5,17.5,0,0,1,335,245.38Z"/></g></g></svg>