<?xml version="1.0" encoding="UTF-8" standalone="no"?>
<!DOCTYPE svg PUBLIC "-//W3C//DTD SVG 1.1//EN" "http://www.w3.org/Graphics/SVG/1.1/DTD/svg11.dtd">
<svg width="22px" height="32px" viewBox="0 0 22 32" version="1.1" xmlns="http://www.w3.org/2000/svg" xmlns:xlink="http://www.w3.org/1999/xlink" xml:space="preserve" xmlns:serif="http://www.serif.com/" style="fill-rule:evenodd;clip-rule:evenodd;stroke-linejoin:round;stroke-miterlimit:1.41421;">
    <g transform="matrix(0.564103,0,0,0.564103,-4.44403,0)">
        <path d="M40.94,5.617C37.318,1.995 32.502,0 27.38,0C22.257,0 17.442,1.995 13.82,5.617C7.117,12.319 6.284,24.929 12.016,32.569L27.38,54.757L42.721,32.6C48.476,24.929 47.643,12.319 40.94,5.617ZM27.557,26C23.698,26 20.557,22.859 20.557,19C20.557,15.141 23.698,12 27.557,12C31.416,12 34.557,15.141 34.557,19C34.557,22.859 31.416,26 27.557,26Z" style="fill:#fff;fill-rule:nonzero;"/>
    </g>
</svg>
